<svg xmlns="http://www.w3.org/2000/svg" width="512" height="512" viewBox="0 0 24 24">
  <circle cx="12" cy="12" r="11" fill="#0f172a"/>
  
  <path d="M12 2a10 10 0 1 1-7.07 17.07l1.41-1.41A8 8 0 1 0 12 4V2z" fill="#3b82f6" opacity="0.2"/>
  
  <path d="M12 6a6 6 0 1 1-4.24 10.24l1.41-1.41A4 4 0 1 0 12 8V6z" fill="#3b82f6" opacity="0.4"/>

  <g fill="none" stroke="#60a5fa" stroke-width="2" stroke-linecap="round" stroke-linejoin="round">
    <path d="M19.07 4.93A10 10 0 0 0 6.99 3.34" />
    <path d="M2.29 9.62A10 10 0 1 0 21.31 8.35" />
    <path d="M16.24 7.76A6 6 0 1 0 8.23 16.67" />
    <path d="M17.99 11.66A6 6 0 0 1 15.77 16.67" />
    
    <path d="m13.41 10.59 5.66-5.66" stroke="#ffffff" stroke-width="2.5" />
    
    <circle cx="12" cy="12" r="2" fill="#60a5fa" stroke="none" />
    
    <circle cx="4" cy="6" r="1" fill="#fbbf24" stroke="none" />
    <circle cx="12" cy="18" r="1" fill="#fbbf24" stroke="none" />
  </g>
</svg>