<svg xmlns="http://www.w3.org/2000/svg" viewBox="0 0 32 32" fill="none">
  <rect width="32" height="32" rx="8" fill="#000"/>
  <path d="M8 10C8 8.89543 8.89543 8 10 8H14C15.1046 8 16 8.89543 16 10V14C16 15.1046 15.1046 16 14 16H10C8.89543 16 8 15.1046 8 14V10Z" fill="#fff"/>
  <path d="M18 10C18 8.89543 18.8954 8 20 8H22C23.1046 8 24 8.89543 24 10V12C24 13.1046 23.1046 14 22 14H20C18.8954 14 18 13.1046 18 12V10Z" fill="#fff" fill-opacity="0.6"/>
  <path d="M8 18C8 16.8954 8.89543 16 10 16H12C13.1046 16 14 16.8954 14 18V22C14 23.1046 13.1046 24 12 24H10C8.89543 24 8 23.1046 8 22V18Z" fill="#fff" fill-opacity="0.6"/>
  <path d="M16 18C16 16.8954 16.8954 16 18 16H22C23.1046 16 24 16.8954 24 18V22C24 23.1046 23.1046 24 22 24H18C16.8954 24 16 23.1046 16 22V18Z" fill="#fff" fill-opacity="0.35"/>
</svg>
