<svg width="1200" height="630" viewBox="0 0 1200 630" xmlns="http://www.w3.org/2000/svg">
  <defs>
    <linearGradient id="bg" x1="0%" y1="0%" x2="100%" y2="100%">
      <stop offset="0%" stop-color="#050810"/>
      <stop offset="100%" stop-color="#0f172a"/>
    </linearGradient>

    <linearGradient id="textGrad" x1="0%" y1="0%" x2="100%" y2="100%">
      <stop offset="0%" stop-color="#ffffff"/>
      <stop offset="100%" stop-color="#cbd5e1"/>
    </linearGradient>

    <!-- Very subtle vignette for depth -->
    <radialGradient id="vignette" cx="50%" cy="50%" r="75%">
      <stop offset="60%" stop-color="#000000" stop-opacity="0"/>
      <stop offset="100%" stop-color="#000000" stop-opacity="0.25"/>
    </radialGradient>
  </defs>

  <!-- Background -->
  <rect width="1200" height="630" fill="url(#bg)"/>
  <rect width="1200" height="630" fill="url(#vignette)"/>

  <!-- Logo (EXACT favicon, scaled only, slightly adjusted left) -->
  <g transform="translate(260 315) scale(13) translate(-12 -12)">
    <circle cx="12" cy="12" r="11" fill="#0f172a"/>
    <path d="M12 2a10 10 0 1 1-7.07 17.07l1.41-1.41A8 8 0 1 0 12 4V2z" fill="#3b82f6" opacity="0.2"/>
    <path d="M12 6a6 6 0 1 1-4.24 10.24l1.41-1.41A4 4 0 1 0 12 8V6z" fill="#3b82f6" opacity="0.4"/>

    <g fill="none" stroke="#60a5fa" stroke-width="2" stroke-linecap="round" stroke-linejoin="round">
      <path d="M19.07 4.93A10 10 0 0 0 6.99 3.34" />
      <path d="M2.29 9.62A10 10 0 1 0 21.31 8.35" />
      <path d="M16.24 7.76A6 6 0 1 0 8.23 16.67" />
      <path d="M17.99 11.66A6 6 0 0 1 15.77 16.67" />
      <path d="m13.41 10.59 5.66-5.66" stroke="#ffffff" stroke-width="2.5" />
      <circle cx="12" cy="12" r="2" fill="#60a5fa" stroke="none" />
      <circle cx="4" cy="6" r="1" fill="#fbbf24" stroke="none" />
      <circle cx="12" cy="18" r="1" fill="#fbbf24" stroke="none" />
    </g>
  </g>

  <!-- Text block -->
  <text x="470" y="290"
        font-family="system-ui, -apple-system, 'Segoe UI', Roboto, sans-serif"
        font-size="96"
        font-weight="800"
        fill="url(#textGrad)"
        letter-spacing="-2.5">
    VulnRadar
  </text>

  <text x="475" y="340"
        font-family="system-ui, -apple-system, 'Segoe UI', Roboto, sans-serif"
        font-size="26"
        font-weight="600"
        fill="#94a3b8"
        letter-spacing="2">
    WEB VULNERABILITY SCANNER
  </text>

  <text x="475" y="385"
        font-family="system-ui, -apple-system, 'Segoe UI', Roboto, sans-serif"
        font-size="18"
        font-weight="600"
        fill="#64748b">
    vulnradar.dev
  </text>

  <g transform="translate(475 450)"
     font-family="system-ui, -apple-system, 'Segoe UI', Roboto, sans-serif"
     font-size="16"
     font-weight="700"
     fill="#cbd5e1">

    <!-- Item 1 -->
    <g transform="translate(0 0)">
      <circle cx="0" cy="0" r="5" fill="#22c55e"/>
      <text x="16" y="6">120+ CHECKS</text>
    </g>

    <!-- Item 2 -->
    <g transform="translate(150 0)">
      <circle cx="0" cy="0" r="5" fill="#3b82f6"/>
      <text x="16" y="6">INSTANT REPORTS</text>
    </g>

    <!-- Item 3 -->
    <g transform="translate(340 0)">
      <circle cx="0" cy="0" r="5" fill="#f59e0b"/>
      <text x="16" y="6">OPEN SOURCE</text>
    </g>
  </g>


</svg>
